<svg id="Layer_1" data-name="Layer 1" xmlns="http://www.w3.org/2000/svg" viewBox="0 0 1000 1000"><defs><style>.cls-1{fill:#095568;}.cls-2{fill:#f6b696;}.cls-3{fill:#c77d26;}.cls-4{fill:#0d3a45;}.cls-5{fill:#102c33;}.cls-6{fill:#42210b;}</style></defs><title>Logo Final</title><path class="cls-1" d="M685.73,596a231.71,231.71,0,0,1-343.09,91.55l-.48-.35a232.83,232.83,0,0,1-66-71.72q-5.56-9.45-10.28-19.49Z"/><path class="cls-2" d="M765,350.16c-12.3,17.64-32.58,30.43-55.42,30.43-1.67,0-3.31-.06-4.94-.19a66.57,66.57,0,0,1-37.24-14.82A69,69,0,0,1,654,351c-1,1-2.13,2-3.23,2.93a75.69,75.69,0,0,1-103.84-4.78C533.11,335,523.09,314,523.09,292.43a80.49,80.49,0,0,1,1.55-15.74,78.7,78.7,0,0,1,3.07-11.1,61.92,61.92,0,0,1-36.48-56.75c0-12.32,4.67-23.83,10.75-33.48,10.07.8,20.37,2.1,30.15,3.83A48.81,48.81,0,0,0,535.6,252a46.92,46.92,0,0,0,12.71,7.27,70.18,70.18,0,0,0-3,10.92,71.26,71.26,0,0,0-1.21,11.36c0,.6,0,1.18,0,1.77a69.71,69.71,0,0,0,19.08,48.12,66.86,66.86,0,0,0,80.52,13.08,61.93,61.93,0,0,0,5.41-3.26A68.65,68.65,0,0,0,660.19,332a48.49,48.49,0,0,0,19.2,20.14,46.21,46.21,0,0,0,22.79,6c.83,0,1.67,0,2.49-.06,21.14-1.13,38.61-16.43,43.42-36.77A326.86,326.86,0,0,1,765,350.16Z"/><path class="cls-3" d="M801.48,501.49h-556a228.2,228.2,0,0,1,21.42-96.81l-102.57,0A331.79,331.79,0,0,1,246.93,268.3a324.78,324.78,0,0,1,228.87-94q13.4,0,26.54,1.07a62.63,62.63,0,0,0-9.62,33.45,61.92,61.92,0,0,0,36.48,56.75,78.7,78.7,0,0,0-3.07,11.1,80.49,80.49,0,0,0-1.55,15.74,78.91,78.91,0,0,0,22.34,55.24,75.69,75.69,0,0,0,103.84,4.78c1.1-.94,2.19-1.92,3.23-2.93a69,69,0,0,0,13.43,14.57,66.57,66.57,0,0,0,37.24,14.82c1.64.13,3.28.19,4.94.19A67.36,67.36,0,0,0,764.93,350a324.39,324.39,0,0,1,21.92,53.22A335.67,335.67,0,0,1,801.48,501.49Z"/><path class="cls-4" d="M704.66,500V731.7q-5.47,5.43-11.2,10.56A324.51,324.51,0,0,1,475.8,825.68a332,332,0,0,1-133.54-28.56V685.88l2,1.41a229.15,229.15,0,0,0,339-90.47h-341V500Z"/><path class="cls-5" d="M938.42,596.81A145.27,145.27,0,0,0,801.48,500H703.36V825.68h98.12V790.44A145.28,145.28,0,0,0,938.42,596.81ZM801.48,693.63a48.41,48.41,0,1,1,48.41-48.41A48.37,48.37,0,0,1,801.48,693.63Z"/><circle class="cls-6" cx="473.4" cy="369.89" r="47.88"/><circle class="cls-6" cx="692.84" cy="440.65" r="36.71"/><circle class="cls-6" cx="427.3" cy="242.33" r="28.58"/><circle class="cls-6" cx="275.8" cy="322" r="27.93"/><circle class="cls-6" cx="406.79" cy="451.59" r="23.58"/><circle class="cls-6" cx="573.31" cy="437.94" r="23.58"/><circle class="cls-6" cx="367.56" cy="313.6" r="23.58"/><circle class="cls-6" cx="312.51" cy="414.36" r="36.71"/><path class="cls-5" d="M268.35,596.81q4.65,9.9,10.16,19.26a230.07,230.07,0,0,0,65.24,70.87V797.78a326.42,326.42,0,0,1-179-201H53.3V500h96.81a325.72,325.72,0,0,1,14.63-96.81H268.35A228.2,228.2,0,0,0,246.93,500h96.81v96.81Z"/></svg>