<svg id="Layer_1" data-name="Layer 1" xmlns="http://www.w3.org/2000/svg" viewBox="0 0 1000 1000"><title>Main Black Logo</title><path d="M773.36,345.45c-12.69,18.19-33.61,31.39-57.16,31.39-1.72,0-3.41-.06-5.1-.2a68.66,68.66,0,0,1-38.41-15.29,71.19,71.19,0,0,1-13.86-15c-1.08,1-2.2,2.06-3.33,3a78.07,78.07,0,0,1-107.11-4.93c-14.24-14.61-24.58-36.29-24.58-58.52a83,83,0,0,1,1.6-16.24,81.17,81.17,0,0,1,3.16-11.45A63.87,63.87,0,0,1,491,199.69c0-12.71,4.82-24.58,11.09-34.54,10.39.83,21,2.17,31.1,3.95a50.34,50.34,0,0,0,3.58,75.06,48.4,48.4,0,0,0,13.1,7.5,72.38,72.38,0,0,0-3.07,11.26,73.5,73.5,0,0,0-1.24,11.72c0,.61,0,1.21,0,1.83a71.9,71.9,0,0,0,19.68,49.64,69,69,0,0,0,83.05,13.49,63.88,63.88,0,0,0,5.58-3.36,70.8,70.8,0,0,0,11.43-9.54A50,50,0,0,0,685,347.46a47.66,47.66,0,0,0,23.51,6.16c.86,0,1.72,0,2.57-.06,21.8-1.17,39.82-16.95,44.78-37.93A337.14,337.14,0,0,1,773.36,345.45Z"/><path d="M711.1,500V739q-5.65,5.6-11.55,10.89A336.22,336.22,0,0,1,338.4,807l.12-114.36.8.57A236.36,236.36,0,0,0,689,599.86H337.29V500Z"/><path d="M952.21,599.86A149.84,149.84,0,0,0,811,500H709.75V835.92H811V799.58A149.85,149.85,0,0,0,952.21,599.86ZM811,699.72a49.93,49.93,0,1,1,49.93-49.93A49.89,49.89,0,0,1,811,699.72Z"/><path d="M811,501.54a346.22,346.22,0,0,0-15.09-101.39,334.6,334.6,0,0,0-22.61-54.89,69.48,69.48,0,0,1-57.06,30c-1.72,0-3.41-.06-5.1-.2a68.66,68.66,0,0,1-38.41-15.29,71.18,71.18,0,0,1-13.86-15c-1.08,1-2.2,2.06-3.33,3a78.07,78.07,0,0,1-107.11-4.93,81.39,81.39,0,0,1-23-57,83,83,0,0,1,1.6-16.24,81.16,81.16,0,0,1,3.16-11.45,63.87,63.87,0,0,1-37.62-58.53,64.6,64.6,0,0,1,9.92-34.5q-13.53-1.11-27.38-1.11A335,335,0,0,0,239,261a342.22,342.22,0,0,0-85.24,140.64l105.79,0a235.38,235.38,0,0,0-22.09,99.86ZM698.91,400.92A37.86,37.86,0,1,1,661,438.79,37.86,37.86,0,0,1,698.91,400.92ZM575.62,411.66A24.32,24.32,0,1,1,551.29,436,24.32,24.32,0,0,1,575.62,411.66ZM403.85,474.4a24.32,24.32,0,1,1,24.32-24.32A24.32,24.32,0,0,1,403.85,474.4Zm118.09-108.6a49.39,49.39,0,1,1-49.39-49.39A49.39,49.39,0,0,1,521.95,365.79ZM425,204.75a29.48,29.48,0,1,1-29.48,29.48A29.48,29.48,0,0,1,425,204.75ZM363.4,283.41a24.32,24.32,0,1,1-24.32,24.32A24.32,24.32,0,0,1,363.4,283.41ZM344.48,411.66a37.86,37.86,0,1,1-37.86-37.86A37.86,37.86,0,0,1,344.48,411.66ZM239.94,316.41a28.81,28.81,0,1,1,28.81,28.81A28.81,28.81,0,0,1,239.94,316.41Z"/><path d="M261.06,599.86q4.79,10.21,10.48,19.86a237.31,237.31,0,0,0,67.29,73.1V807.15A336.69,336.69,0,0,1,154.2,599.86H39.25V500h99.86a336,336,0,0,1,15.09-99.86H261.06A235.38,235.38,0,0,0,239,500h99.86v99.86Z"/></svg>