<svg id="Layer_1" data-name="Layer 1" xmlns="http://www.w3.org/2000/svg" viewBox="0 0 1000 1000"><defs><style>.cls-1{fill:#fff;}</style></defs><title>Main White Logo</title><path class="cls-1" d="M774.24,345c-12.73,18.25-33.72,31.49-57.34,31.49-1.73,0-3.42-.06-5.12-.2a68.88,68.88,0,0,1-38.53-15.34,71.41,71.41,0,0,1-13.9-15.07c-1.08,1-2.2,2.07-3.35,3a78.32,78.32,0,0,1-107.45-4.95c-14.29-14.66-24.66-36.4-24.66-58.71a83.28,83.28,0,0,1,1.6-16.29,81.43,81.43,0,0,1,3.18-11.48,64.07,64.07,0,0,1-37.74-58.72c0-12.75,4.83-24.66,11.12-34.65,10.42.83,21.07,2.17,31.2,4a50.5,50.5,0,0,0,3.59,75.3A48.55,48.55,0,0,0,550,250.86a72.61,72.61,0,0,0-3.08,11.3,73.74,73.74,0,0,0-1.25,11.76c0,.62,0,1.22,0,1.83a72.13,72.13,0,0,0,19.74,49.8,69.19,69.19,0,0,0,83.32,13.53,64.09,64.09,0,0,0,5.59-3.38,71,71,0,0,0,11.47-9.57A50.17,50.17,0,0,0,685.62,347a47.82,47.82,0,0,0,23.58,6.18c.86,0,1.73,0,2.57-.06,21.87-1.17,39.95-17,44.93-38.05A338.23,338.23,0,0,1,774.24,345Z"/><path class="cls-1" d="M711.78,500V739.75q-5.66,5.62-11.59,10.93a337.3,337.3,0,0,1-362.31,57.27L338,693.22l.8.57a237.12,237.12,0,0,0,350.81-93.61H336.77V500Z"/><path class="cls-1" d="M953.66,600.18A150.32,150.32,0,0,0,812,500H710.43V837H812V800.54a150.33,150.33,0,0,0,141.7-200.36ZM812,700.36A50.09,50.09,0,1,1,862,650.27,50.05,50.05,0,0,1,812,700.36Z"/><path class="cls-1" d="M812,501.54a347.34,347.34,0,0,0-15.14-101.72,335.67,335.67,0,0,0-22.69-55.07A69.7,69.7,0,0,1,716.9,374.9c-1.73,0-3.42-.06-5.12-.2a68.88,68.88,0,0,1-38.53-15.34,71.41,71.41,0,0,1-13.9-15.07c-1.08,1-2.2,2.07-3.35,3a78.32,78.32,0,0,1-107.45-4.95,81.65,81.65,0,0,1-23.12-57.16,83.28,83.28,0,0,1,1.6-16.29,81.43,81.43,0,0,1,3.18-11.48,64.07,64.07,0,0,1-37.74-58.72,64.8,64.8,0,0,1,10-34.62Q488.85,163,475,163a336.07,336.07,0,0,0-236.82,97.25,343.32,343.32,0,0,0-85.51,141.09l106.13,0a236.14,236.14,0,0,0-22.16,100.18ZM699.54,400.6a38,38,0,1,1-38,38A38,38,0,0,1,699.54,400.6ZM575.86,411.38a24.4,24.4,0,1,1-24.4,24.4A24.4,24.4,0,0,1,575.86,411.38ZM403.55,474.31a24.4,24.4,0,1,1,24.4-24.4A24.4,24.4,0,0,1,403.55,474.31ZM522,365.36a49.55,49.55,0,1,1-49.55-49.55A49.55,49.55,0,0,1,522,365.36ZM424.77,203.8a29.57,29.57,0,1,1-29.57,29.57A29.57,29.57,0,0,1,424.77,203.8ZM363,282.72a24.4,24.4,0,1,1-24.4,24.4A24.4,24.4,0,0,1,363,282.72ZM344,411.38a38,38,0,1,1-38-38A38,38,0,0,1,344,411.38ZM239.1,315.82a28.9,28.9,0,1,1,28.9,28.9A28.9,28.9,0,0,1,239.1,315.82Z"/><path class="cls-1" d="M260.29,600.18q4.81,10.24,10.51,19.93a238.07,238.07,0,0,0,67.51,73.33v114.7a337.77,337.77,0,0,1-185.22-208H37.77V500H138a337,337,0,0,1,15.14-100.18H260.29A236.14,236.14,0,0,0,238.13,500H338.31V600.18Z"/></svg>