<svg id="Layer_1" data-name="Layer 1" xmlns="http://www.w3.org/2000/svg" viewBox="0 0 1000 1000"><defs><style>.cls-1{fill:#fff;}</style></defs><title>Main White Logo (Show)</title><path class="cls-1" d="M677.94,399.4c-8.26,11.84-21.88,20.43-37.21,20.43-1.12,0-2.22,0-3.32-.13a44.69,44.69,0,0,1-25-10,46.34,46.34,0,0,1-9-9.78c-.7.68-1.43,1.34-2.17,2a50.82,50.82,0,0,1-69.72-3.21c-9.27-9.51-16-23.62-16-38.09a54,54,0,0,1,1-10.57,52.84,52.84,0,0,1,2.06-7.45,41.57,41.57,0,0,1-24.49-38.1c0-8.27,3.14-16,7.22-22.48,6.76.54,13.67,1.41,20.24,2.57a32.77,32.77,0,0,0,2.33,48.86,31.5,31.5,0,0,0,8.53,4.88,47.11,47.11,0,0,0-2,7.33,47.84,47.84,0,0,0-.81,7.63c0,.4,0,.79,0,1.19a46.8,46.8,0,0,0,12.81,32.31,44.89,44.89,0,0,0,54.06,8.78,41.58,41.58,0,0,0,3.63-2.19,46.09,46.09,0,0,0,7.44-6.21,32.55,32.55,0,0,0,12.89,13.52,31,31,0,0,0,15.3,4c.56,0,1.12,0,1.67,0A31.91,31.91,0,0,0,666.56,380,219.45,219.45,0,0,1,677.94,399.4Z"/><path class="cls-1" d="M637.41,500V655.56q-3.68,3.64-7.52,7.09a218.85,218.85,0,0,1-235.08,37.16l.08-74.44.52.37A153.85,153.85,0,0,0,623,565H394.09V500Z"/><path class="cls-1" d="M794.35,565a97.53,97.53,0,0,0-91.94-65H636.53V718.66h65.88V695a97.54,97.54,0,0,0,91.94-130Zm-91.94,65a32.5,32.5,0,1,1,32.5-32.5A32.47,32.47,0,0,1,702.41,630Z"/><path class="cls-1" d="M702.41,501a225.36,225.36,0,0,0-9.82-66,217.8,217.8,0,0,0-14.72-35.73,45.23,45.23,0,0,1-37.14,19.56c-1.12,0-2.22,0-3.32-.13a44.69,44.69,0,0,1-25-10,46.33,46.33,0,0,1-9-9.78c-.7.68-1.43,1.34-2.17,2a50.82,50.82,0,0,1-69.72-3.21,53,53,0,0,1-15-37.09,54,54,0,0,1,1-10.57,52.83,52.83,0,0,1,2.06-7.45,41.57,41.57,0,0,1-24.49-38.1,42,42,0,0,1,6.46-22.46q-8.8-.72-17.82-.72a218.05,218.05,0,0,0-153.66,63.1A222.76,222.76,0,0,0,274.61,436l68.86,0a153.21,153.21,0,0,0-14.38,65Zm-72.94-65.49a24.65,24.65,0,1,1-24.65,24.65A24.65,24.65,0,0,1,629.47,435.51Zm-80.25,7a15.83,15.83,0,1,1-15.83,15.83A15.83,15.83,0,0,1,549.22,442.5Zm-111.8,40.83a15.83,15.83,0,1,1,15.83-15.83A15.83,15.83,0,0,1,437.42,483.33Zm76.87-70.69a32.15,32.15,0,1,1-32.15-32.15A32.15,32.15,0,0,1,514.29,412.64ZM451.19,307.81A19.19,19.19,0,1,1,432,327,19.19,19.19,0,0,1,451.19,307.81ZM411.08,359a15.83,15.83,0,1,1-15.83,15.83A15.83,15.83,0,0,1,411.08,359ZM398.77,442.5a24.65,24.65,0,1,1-24.65-24.65A24.65,24.65,0,0,1,398.77,442.5Zm-68-62a18.75,18.75,0,1,1,18.75,18.75A18.75,18.75,0,0,1,330.72,380.5Z"/><path class="cls-1" d="M344.47,565q3.12,6.64,6.82,12.93a154.47,154.47,0,0,0,43.8,47.58v74.42A219.16,219.16,0,0,1,274.91,565H200.09V500h65a218.69,218.69,0,0,1,9.82-65h69.56a153.21,153.21,0,0,0-14.38,65h65v65Z"/></svg>