<svg id="Layer_1" data-name="Layer 1" xmlns="http://www.w3.org/2000/svg" viewBox="0 0 1000 1000"><defs><style>.cls-1{fill:#1f53c5;}.cls-2{fill:#c77d26;}.cls-3{fill:#2277e1;}.cls-4{fill:#f6b696;}.cls-5{fill:#1e40af;}.cls-6{fill:#42210b;}</style></defs><title>Blue Combined Logo (Show)</title><path class="cls-1" d="M579.67,384.93H539.18a26.61,26.61,0,0,1,26.61-26.61h83.3a26.61,26.61,0,0,1-26.61,26.61H608.59V491.38h0a28.92,28.92,0,0,1-28.92-28.92Z"/><path class="cls-1" d="M620.16,441.36V441c0-29.14,20.76-53.15,50.48-53.15,34.1,0,49.72,26.48,49.72,55.43,0,2.29-.19,5-.38,7.62H648.93c2.86,13.14,12,20,25,20a33.31,33.31,0,0,0,11.38-1.81,30.1,30.1,0,0,1,30,6h0c-9.52,11.81-23.24,19-41.72,19C642.83,494.12,620.16,472.6,620.16,441.36Zm71.45-9c-1.71-13-9.33-21.72-21.53-21.72-12,0-19.81,8.57-22.1,21.72Z"/><path class="cls-1" d="M727.76,462v-.39c0-22.24,16.91-32.5,41.05-32.5a72.37,72.37,0,0,1,24.9,4.18v-1.77c0-12-7.42-18.67-21.87-18.67a74.15,74.15,0,0,0-8.71.49,25,25,0,0,1-26.66-17.06h0c11.22-5,22.25-8.19,39.56-8.19,15.79,0,27.2,4.19,34.42,11.43,7.61,7.62,11,18.86,11,32.57v42.52a16.72,16.72,0,0,1-16.72,16.72h0a11,11,0,0,1-11-11h0c-7.05,7.81-16.77,13-30.88,13C743.58,493.28,727.76,482.23,727.76,462Zm67.1-6.61v-5.1a44.55,44.55,0,0,0-18.33-3.78c-12.29,0-19.85,4.91-19.85,14v.38c0,7.75,6.43,12.29,15.69,12.29C785.8,473.2,794.87,465.83,794.87,455.44Z"/><path class="cls-2" d="M576.71,552.44a46.57,46.57,0,0,1,46.57-46.57h7.56c31.88,0,51.16,18.93,51.16,46.28v.38c0,31-24.05,47-54,47H605.63V610a28.92,28.92,0,0,1-28.92,28.92h0ZM629.93,573c14.6,0,23.14-8.7,23.14-20.06v-.38c0-13.06-9.1-20.06-23.71-20.06h0a22.57,22.57,0,0,0-22.57,22.57V573Z"/><path class="cls-2" d="M688.94,571.82h0a28.92,28.92,0,0,1,28.92,28.92v38.18h0A28.92,28.92,0,0,1,688.94,610Z"/><path class="cls-2" d="M724.8,588.91v-.38c0-29.14,20.76-53.15,50.48-53.15,34.1,0,49.72,26.48,49.72,55.43,0,2.29-.19,5-.38,7.62H753.57c2.86,13.14,12,20,25,20a33.31,33.31,0,0,0,11.38-1.81,30.1,30.1,0,0,1,30,6h0c-9.52,11.81-23.24,19-41.72,19C747.47,641.68,724.8,620.15,724.8,588.91Zm71.94-9c-1.71-13-9.33-21.72-21.53-21.72-12,0-19.81,8.57-22.1,21.72Z"/><circle class="cls-2" cx="703.4" cy="550.42" r="14.46"/><path class="cls-3" d="M432.05,538.18a95.05,95.05,0,0,1-140.75,37.56l-.2-.14A95.51,95.51,0,0,1,264,546.17q-2.28-3.88-4.22-8Z"/><path class="cls-4" d="M464.58,437.32c-5,7.23-13.37,12.48-22.73,12.48-.68,0-1.36,0-2-.08a27.31,27.31,0,0,1-15.28-6.08,28.31,28.31,0,0,1-5.51-6c-.43.42-.87.82-1.33,1.2a31.05,31.05,0,0,1-42.6-2,34.4,34.4,0,0,1-9.78-23.27,33,33,0,0,1,.64-6.46,32.28,32.28,0,0,1,1.26-4.55,25.4,25.4,0,0,1-15-23.28,26.12,26.12,0,0,1,4.41-13.74c4.13.33,8.35.86,12.37,1.57A20,20,0,0,0,370.46,397a19.25,19.25,0,0,0,5.21,3,28.79,28.79,0,0,0-1.22,4.48,29.23,29.23,0,0,0-.49,4.66c0,.24,0,.48,0,.73a28.6,28.6,0,0,0,7.83,19.74,27.43,27.43,0,0,0,33,5.36,25.41,25.41,0,0,0,2.22-1.34,28.16,28.16,0,0,0,4.55-3.79,19.89,19.89,0,0,0,7.88,8.26,19,19,0,0,0,9.35,2.45c.34,0,.68,0,1,0a19.5,19.5,0,0,0,17.81-15.09A134.09,134.09,0,0,1,464.58,437.32Z"/><path class="cls-2" d="M479.53,499.4H251.43a93.62,93.62,0,0,1,8.79-39.72H218.14A136.11,136.11,0,0,1,252,403.74a133.23,133.23,0,0,1,93.89-38.56q5.5,0,10.89.44a25.69,25.69,0,0,0-3.95,13.72,25.4,25.4,0,0,0,15,23.28,32.28,32.28,0,0,0-1.26,4.55,33,33,0,0,0-.64,6.46,32.37,32.37,0,0,0,9.17,22.66,31.05,31.05,0,0,0,42.6,2c.45-.38.9-.79,1.33-1.2a28.31,28.31,0,0,0,5.51,6,27.31,27.31,0,0,0,15.28,6.08c.67.05,1.34.08,2,.08a27.63,27.63,0,0,0,22.69-12,133.07,133.07,0,0,1,9,21.83A137.7,137.7,0,0,1,479.53,499.4Z"/><path class="cls-1" d="M439.82,498.79v95.05q-2.25,2.23-4.59,4.33a133.12,133.12,0,0,1-89.29,34.22,136.18,136.18,0,0,1-54.78-11.72V575l.81.58A94,94,0,0,0,431,538.5H291.15V498.79Z"/><path class="cls-5" d="M535.71,538.5a59.59,59.59,0,0,0-56.18-39.72H439.28V632.39h40.25V617.93a59.6,59.6,0,0,0,56.18-79.43Zm-56.18,39.72a19.86,19.86,0,1,1,19.86-19.86A19.84,19.84,0,0,1,479.53,578.22Z"/><circle class="cls-6" cx="344.94" cy="445.41" r="19.64"/><circle class="cls-6" cx="434.97" cy="474.44" r="15.06"/><circle class="cls-6" cx="326.04" cy="393.08" r="11.72"/><circle class="cls-6" cx="263.88" cy="425.77" r="11.46"/><circle class="cls-6" cx="317.62" cy="478.93" r="9.67"/><circle class="cls-6" cx="385.93" cy="473.33" r="9.67"/><circle class="cls-6" cx="301.53" cy="422.32" r="9.67"/><circle class="cls-6" cx="278.94" cy="463.65" r="15.06"/><path class="cls-5" d="M260.83,538.5q1.91,4.06,4.17,7.9a94.38,94.38,0,0,0,26.76,29.07v45.47a133.91,133.91,0,0,1-73.43-82.44H172.61V498.79h39.72a133.62,133.62,0,0,1,6-39.72h42.5A93.62,93.62,0,0,0,252,498.79h39.72V538.5Z"/></svg>