<svg id="Layer_1" data-name="Layer 1" xmlns="http://www.w3.org/2000/svg" viewBox="0 0 1000 476.71"><defs><style>.cls-1{fill:#1f53c5;}.cls-2{fill:#c77d26;}.cls-3{fill:#2277e1;}.cls-4{fill:#f6b696;}.cls-5{fill:#1e40af;}.cls-6{fill:#42210b;}</style></defs><title>Blue Combined Logo</title><path class="cls-1" d="M616.07,73.2H557.95A38.19,38.19,0,0,1,596.14,35H715.71A38.19,38.19,0,0,1,677.51,73.2H657.58V226h0a41.52,41.52,0,0,1-41.52-41.52Z"/><path class="cls-1" d="M674.19,154.19v-.55c0-41.83,29.8-76.28,72.45-76.28,48.94,0,71.36,38,71.36,79.56,0,3.28-.27,7.11-.55,10.94h-102c4.1,18.87,17.22,28.71,35.82,28.71a47.8,47.8,0,0,0,16.33-2.6,43.2,43.2,0,0,1,43,8.61h0c-13.67,17-33.36,27.34-59.88,27.34C706.73,229.92,674.19,199,674.19,154.19Zm102.55-12.9c-2.46-18.59-13.4-31.17-30.9-31.17-17.22,0-28.43,12.3-31.72,31.17Z"/><path class="cls-1" d="M828.63,183.87v-.56c0-31.92,24.28-46.65,58.92-46.65a103.87,103.87,0,0,1,35.73,6v-2.54c0-17.23-10.65-26.8-31.39-26.8a106.43,106.43,0,0,0-12.51.7,35.86,35.86,0,0,1-38.26-24.49h0c16.11-7.11,31.94-11.76,56.78-11.76,22.66,0,39,6,49.41,16.41,10.92,10.94,15.83,27.07,15.83,46.75v61a24,24,0,0,1-24,24h0a15.86,15.86,0,0,1-15.86-15.86h0c-10.12,11.21-24.07,18.59-44.32,18.59C851.34,228.71,828.63,212.86,828.63,183.87Zm96.32-9.48v-7.32a64,64,0,0,0-26.32-5.43c-17.63,0-28.49,7.05-28.49,20.08v.54c0,11.12,9.22,17.63,22.52,17.63C911.92,199.9,924.95,189.31,924.95,174.39Z"/><path class="cls-2" d="M611.82,313.63a66.84,66.84,0,0,1,66.84-66.84h10.84c45.76,0,73.43,27.18,73.43,66.43v.55c0,44.47-34.52,67.53-77.54,67.53H653.34v14.95a41.52,41.52,0,0,1-41.52,41.52h0Zm76.39,29.48c21,0,33.21-12.49,33.21-28.79v-.54c0-18.74-13.07-28.79-34-28.79h0a32.4,32.4,0,0,0-32.4,32.4v25.73Z"/><path class="cls-2" d="M772.9,341.45h0A41.52,41.52,0,0,1,814.42,383v54.8h0a41.52,41.52,0,0,1-41.52-41.52Z"/><path class="cls-2" d="M824.38,366v-.55c0-41.83,29.8-76.28,72.45-76.28,48.94,0,71.36,38,71.36,79.56,0,3.28-.27,7.11-.55,10.94h-102c4.1,18.87,17.22,28.71,35.82,28.71a47.8,47.8,0,0,0,16.33-2.6,43.2,43.2,0,0,1,43,8.61h0c-13.67,17-33.36,27.34-59.88,27.34C856.92,441.71,824.38,410.81,824.38,366Zm103.25-12.9c-2.46-18.59-13.4-31.17-30.9-31.17-17.22,0-28.43,12.3-31.72,31.17Z"/><circle class="cls-2" cx="793.66" cy="310.72" r="20.76"/><path class="cls-3" d="M404.19,293.15a136.43,136.43,0,0,1-202,53.91l-.28-.2A137.09,137.09,0,0,1,163,304.63q-3.27-5.56-6.05-11.48Z"/><path class="cls-4" d="M450.88,148.38c-7.24,10.38-19.19,17.92-32.63,17.92-1,0-1.95,0-2.91-.11a39.2,39.2,0,0,1-21.93-8.73,40.64,40.64,0,0,1-7.91-8.58c-.61.6-1.25,1.18-1.9,1.73a44.57,44.57,0,0,1-61.14-2.82c-8.13-8.34-14-20.71-14-33.41a47.39,47.39,0,0,1,.91-9.27,46.34,46.34,0,0,1,1.81-6.53,36.46,36.46,0,0,1-21.48-33.41c0-7.25,2.75-14,6.33-19.71,5.93.47,12,1.24,17.75,2.25a28.74,28.74,0,0,0,2,42.85,27.63,27.63,0,0,0,7.48,4.28,41.32,41.32,0,0,0-1.75,6.43,42,42,0,0,0-.71,6.69c0,.35,0,.69,0,1A41,41,0,0,0,332,137.34a39.37,39.37,0,0,0,47.41,7.7,36.47,36.47,0,0,0,3.18-1.92,40.42,40.42,0,0,0,6.52-5.45,28.55,28.55,0,0,0,11.3,11.86,27.21,27.21,0,0,0,13.42,3.52c.49,0,1,0,1.46,0a28,28,0,0,0,25.56-21.65A192.46,192.46,0,0,1,450.88,148.38Z"/><path class="cls-2" d="M472.34,237.49H144.94a134.37,134.37,0,0,1,12.61-57H97.16a195.36,195.36,0,0,1,48.66-80.29A191.23,191.23,0,0,1,280.58,44.85q7.89,0,15.63.63a36.88,36.88,0,0,0-5.67,19.7A36.46,36.46,0,0,0,312,98.59a46.34,46.34,0,0,0-1.81,6.53,47.39,47.39,0,0,0-.91,9.27,46.46,46.46,0,0,0,13.16,32.53,44.57,44.57,0,0,0,61.14,2.82c.65-.55,1.29-1.13,1.9-1.73a40.64,40.64,0,0,0,7.91,8.58,39.2,39.2,0,0,0,21.93,8.73c1,.08,1.93.11,2.91.11a39.66,39.66,0,0,0,32.57-17.15,191,191,0,0,1,12.91,31.34A197.65,197.65,0,0,1,472.34,237.49Z"/><path class="cls-1" d="M415.34,236.61V373q-3.22,3.2-6.6,6.22a191.08,191.08,0,0,1-128.17,49.12,195.46,195.46,0,0,1-78.63-16.82v-65.5l1.16.83a134.93,134.93,0,0,0,199.62-53.27H201.94v-57Z"/><path class="cls-5" d="M553,293.62a85.54,85.54,0,0,0-80.63-57H414.57V428.38h57.77V407.63a85.54,85.54,0,0,0,80.63-114Zm-80.63,57a28.5,28.5,0,1,1,28.5-28.5A28.48,28.48,0,0,1,472.34,350.62Z"/><circle class="cls-6" cx="279.16" cy="160" r="28.19"/><circle class="cls-6" cx="408.38" cy="201.67" r="21.62"/><circle class="cls-6" cx="252.02" cy="84.89" r="16.83"/><circle class="cls-6" cx="162.81" cy="131.81" r="16.44"/><circle class="cls-6" cx="239.94" cy="208.11" r="13.89"/><circle class="cls-6" cx="338" cy="200.07" r="13.89"/><circle class="cls-6" cx="216.85" cy="126.86" r="13.89"/><circle class="cls-6" cx="184.43" cy="186.18" r="21.62"/><path class="cls-5" d="M158.43,293.62q2.74,5.83,6,11.34a135.47,135.47,0,0,0,38.41,41.73V412A192.2,192.2,0,0,1,97.42,293.62H31.8v-57h57a191.79,191.79,0,0,1,8.61-57h61a134.37,134.37,0,0,0-12.61,57h57v57Z"/></svg>