<svg id="Layer_1" data-name="Layer 1" xmlns="http://www.w3.org/2000/svg" viewBox="0 0 1000 1000"><defs><style>.cls-1{fill:#1f53c5;}.cls-2{fill:#c77d26;}.cls-3{fill:#2277e1;}.cls-4{fill:#f6b696;}.cls-5{fill:#1e40af;}.cls-6{fill:#42210b;}</style></defs><title>Blue Centered Logo</title><path class="cls-1" d="M198.84,615.41H146.08a34.67,34.67,0,0,1,34.67-34.67H289.28a34.67,34.67,0,0,1-34.67,34.67H236.52V754.08h0a37.68,37.68,0,0,1-37.68-37.68Z"/><path class="cls-1" d="M251.59,688.92v-.5c0-38,27.05-69.24,65.76-69.24,44.42,0,64.77,34.49,64.77,72.22,0,3-.25,6.45-.5,9.93H289.07c3.72,17.12,15.63,26.06,32.51,26.06A43.39,43.39,0,0,0,336.4,725a39.21,39.21,0,0,1,39,7.82h0c-12.41,15.39-30.28,24.82-54.35,24.82C281.13,757.66,251.59,729.61,251.59,688.92Zm93.08-11.71c-2.23-16.87-12.16-28.29-28-28.29-15.63,0-25.81,11.17-28.79,28.29Z"/><path class="cls-1" d="M391.77,715.86v-.51c0-29,22-42.34,53.48-42.34a94.28,94.28,0,0,1,32.43,5.45v-2.3c0-15.64-9.66-24.32-28.49-24.32a96.6,96.6,0,0,0-11.35.64,32.55,32.55,0,0,1-34.73-22.23h0c14.62-6.45,29-10.67,51.54-10.67,20.56,0,35.43,5.46,44.85,14.89,9.91,9.93,14.37,24.57,14.37,42.44v55.4a21.78,21.78,0,0,1-21.78,21.78h0a14.39,14.39,0,0,1-14.39-14.39h0c-9.19,10.17-21.85,16.87-40.23,16.87C412.39,756.56,391.77,742.17,391.77,715.86Zm87.42-8.61v-6.65a58,58,0,0,0-23.89-4.93c-16,0-25.85,6.4-25.85,18.22v.49c0,10.1,8.37,16,20.44,16C467.38,730.4,479.2,720.8,479.2,707.26Z"/><path class="cls-2" d="M530.45,641.41a60.67,60.67,0,0,1,60.67-60.67H601c41.53,0,66.65,24.67,66.65,60.3v.5c0,40.36-31.34,61.29-70.38,61.29h-29.1V716.4a37.68,37.68,0,0,1-37.68,37.68h0Zm69.34,26.75c19,0,30.15-11.34,30.15-26.13v-.49c0-17-11.86-26.13-30.89-26.13h0a29.41,29.41,0,0,0-29.41,29.41v23.35Z"/><path class="cls-2" d="M676.65,666.66h0a37.68,37.68,0,0,1,37.68,37.68v49.74h0a37.68,37.68,0,0,1-37.68-37.68Z"/><path class="cls-2" d="M723.38,688.92v-.5c0-38,27.05-69.24,65.76-69.24,44.42,0,64.77,34.49,64.77,72.22,0,3-.25,6.45-.5,9.93H760.85c3.72,17.12,15.63,26.06,32.51,26.06A43.39,43.39,0,0,0,808.18,725a39.21,39.21,0,0,1,39,7.82h0c-12.41,15.39-30.28,24.82-54.35,24.82C752.91,757.66,723.38,729.61,723.38,688.92Zm93.72-11.71c-2.23-16.87-12.16-28.29-28-28.29-15.63,0-25.81,11.17-28.79,28.29Z"/><circle class="cls-2" cx="695.5" cy="638.77" r="18.84"/><path class="cls-3" d="M588.9,444.61a110.9,110.9,0,0,1-164.21,43.82l-.23-.17a111.44,111.44,0,0,1-31.6-34.33q-2.66-4.52-4.92-9.33Z"/><path class="cls-4" d="M626.85,326.93c-5.89,8.44-15.6,14.57-26.52,14.57-.8,0-1.58,0-2.37-.09a31.86,31.86,0,0,1-17.82-7.09,33,33,0,0,1-6.43-7c-.5.48-1,1-1.55,1.4a36.23,36.23,0,0,1-49.7-2.29C515.85,319.68,511,309.62,511,299.3a38.52,38.52,0,0,1,.74-7.54,37.67,37.67,0,0,1,1.47-5.31A29.64,29.64,0,0,1,495.8,259.3c0-5.9,2.24-11.41,5.14-16,4.82.38,9.75,1,14.43,1.83A23.36,23.36,0,0,0,517,279.93a22.46,22.46,0,0,0,6.08,3.48,33.59,33.59,0,0,0-1.43,5.23,34.11,34.11,0,0,0-.58,5.44c0,.29,0,.56,0,.85a33.36,33.36,0,0,0,9.13,23,32,32,0,0,0,38.54,6.26,29.64,29.64,0,0,0,2.59-1.56,32.86,32.86,0,0,0,5.3-4.43,23.21,23.21,0,0,0,9.19,9.64,22.12,22.12,0,0,0,10.91,2.86c.4,0,.8,0,1.19,0a22.75,22.75,0,0,0,20.78-17.6A156.45,156.45,0,0,1,626.85,326.93Z"/><path class="cls-2" d="M644.3,399.36H378.16A109.22,109.22,0,0,1,388.41,353H339.32a158.8,158.8,0,0,1,39.55-65.26,155.45,155.45,0,0,1,109.54-45q6.42,0,12.7.51a30,30,0,0,0-4.61,16A29.64,29.64,0,0,0,514,286.46a37.67,37.67,0,0,0-1.47,5.31,38.52,38.52,0,0,0-.74,7.54,37.77,37.77,0,0,0,10.69,26.44,36.23,36.23,0,0,0,49.7,2.29c.53-.45,1-.92,1.55-1.4a33,33,0,0,0,6.43,7A31.86,31.86,0,0,0,598,340.69c.78.06,1.57.09,2.37.09a32.24,32.24,0,0,0,26.48-13.94,155.26,155.26,0,0,1,10.49,25.47A160.66,160.66,0,0,1,644.3,399.36Z"/><path class="cls-1" d="M598,398.65v110.9q-2.62,2.6-5.36,5.05a155.32,155.32,0,0,1-104.18,39.93,158.88,158.88,0,0,1-63.92-13.67V487.62l.94.67A109.68,109.68,0,0,0,587.71,445H424.5V398.65Z"/><path class="cls-5" d="M709.84,445a69.53,69.53,0,0,0-65.54-46.34h-47V554.53h47V537.67A69.53,69.53,0,0,0,709.84,445ZM644.3,491.33a23.17,23.17,0,1,1,23.17-23.17A23.15,23.15,0,0,1,644.3,491.33Z"/><circle class="cls-6" cx="487.27" cy="336.38" r="22.92"/><circle class="cls-6" cx="592.3" cy="370.25" r="17.57"/><circle class="cls-6" cx="465.2" cy="275.32" r="13.68"/><circle class="cls-6" cx="392.69" cy="313.46" r="13.37"/><circle class="cls-6" cx="455.38" cy="375.48" r="11.29"/><circle class="cls-6" cx="535.09" cy="368.95" r="11.29"/><circle class="cls-6" cx="436.61" cy="309.44" r="11.29"/><circle class="cls-6" cx="410.26" cy="357.66" r="17.57"/><path class="cls-5" d="M389.12,445q2.22,4.74,4.86,9.22a110.12,110.12,0,0,0,31.22,33.92v53.05A156.23,156.23,0,0,1,339.54,445H286.2V398.65h46.34a155.9,155.9,0,0,1,7-46.34h49.59a109.22,109.22,0,0,0-10.25,46.34h46.34V445Z"/></svg>