<svg id="Layer_1" data-name="Layer 1" xmlns="http://www.w3.org/2000/svg" viewBox="0 0 1000 1000"><defs><style>.cls-1{fill:#866ee4;}.cls-2{fill:#f6b696;}.cls-3{fill:#c77d26;}.cls-4{fill:#764ed0;}.cls-5{fill:#5b21b6;}.cls-6{fill:#42210b;}</style></defs><title>Purple Logo (Show)</title><path class="cls-1" d="M624.7,564.47a155.57,155.57,0,0,1-230.35,61.47l-.32-.23a156.32,156.32,0,0,1-44.32-48.15q-3.73-6.35-6.9-13.08Z"/><path class="cls-2" d="M677.94,399.4c-8.26,11.84-21.88,20.43-37.21,20.43-1.12,0-2.22,0-3.32-.13a44.69,44.69,0,0,1-25-10,46.34,46.34,0,0,1-9-9.78c-.7.68-1.43,1.34-2.17,2a50.82,50.82,0,0,1-69.72-3.21c-9.27-9.51-16-23.62-16-38.09a54,54,0,0,1,1-10.57,52.84,52.84,0,0,1,2.06-7.45,41.57,41.57,0,0,1-24.49-38.1c0-8.27,3.14-16,7.22-22.48,6.76.54,13.67,1.41,20.24,2.57a32.77,32.77,0,0,0,2.33,48.86,31.5,31.5,0,0,0,8.53,4.88,47.11,47.11,0,0,0-2,7.33,47.84,47.84,0,0,0-.81,7.63c0,.4,0,.79,0,1.19a46.8,46.8,0,0,0,12.81,32.31,44.89,44.89,0,0,0,54.06,8.78,41.58,41.58,0,0,0,3.63-2.19,46.09,46.09,0,0,0,7.44-6.21,32.55,32.55,0,0,0,12.89,13.52,31,31,0,0,0,15.3,4c.56,0,1.12,0,1.67,0A31.91,31.91,0,0,0,666.56,380,219.45,219.45,0,0,1,677.94,399.4Z"/><path class="cls-3" d="M702.41,501H329.09a153.21,153.21,0,0,1,14.38-65l-68.86,0a222.76,222.76,0,0,1,55.48-91.54,218.05,218.05,0,0,1,153.66-63.1q9,0,17.82.72a42,42,0,0,0-6.46,22.46,41.57,41.57,0,0,0,24.49,38.1,52.84,52.84,0,0,0-2.06,7.45,54,54,0,0,0-1,10.57,53,53,0,0,0,15,37.09,50.82,50.82,0,0,0,69.72,3.21c.74-.63,1.47-1.29,2.17-2a46.34,46.34,0,0,0,9,9.78,44.69,44.69,0,0,0,25,10c1.1.09,2.2.13,3.32.13a45.23,45.23,0,0,0,37.14-19.56A217.79,217.79,0,0,1,692.59,435,225.36,225.36,0,0,1,702.41,501Z"/><path class="cls-4" d="M637.41,500V655.56q-3.68,3.64-7.52,7.09a217.87,217.87,0,0,1-146.14,56,222.87,222.87,0,0,1-89.66-19.18V624.8l1.32.94A153.85,153.85,0,0,0,623,565H394.09V500Z"/><path class="cls-5" d="M794.35,565a97.53,97.53,0,0,0-91.94-65H636.53V718.66h65.88V695a97.54,97.54,0,0,0,91.94-130Zm-91.94,65a32.5,32.5,0,1,1,32.5-32.5A32.47,32.47,0,0,1,702.41,630Z"/><circle class="cls-6" cx="482.14" cy="412.64" r="32.15"/><circle class="cls-6" cx="629.47" cy="460.16" r="24.65"/><circle class="cls-6" cx="451.19" cy="327" r="19.19"/><circle class="cls-6" cx="349.47" cy="380.5" r="18.75"/><circle class="cls-6" cx="437.42" cy="467.5" r="15.83"/><circle class="cls-6" cx="549.22" cy="458.33" r="15.83"/><circle class="cls-6" cx="411.08" cy="374.85" r="15.83"/><circle class="cls-6" cx="374.12" cy="442.5" r="24.65"/><path class="cls-5" d="M344.47,565q3.12,6.64,6.82,12.93a154.47,154.47,0,0,0,43.8,47.58v74.42A219.16,219.16,0,0,1,274.91,565H200.09V500h65a218.69,218.69,0,0,1,9.82-65h69.56a153.21,153.21,0,0,0-14.38,65h65v65Z"/></svg>