<svg id="Layer_1" data-name="Layer 1" xmlns="http://www.w3.org/2000/svg" viewBox="0 0 1000 1000"><defs><style>.cls-1{fill:#0a83ae;}.cls-2{fill:#c77d26;}.cls-3{fill:#2eb6e0;}.cls-4{fill:#f6b696;}.cls-5{fill:#126690;}.cls-6{fill:#42210b;}</style></defs><title>Main Horizontal Logo (Show)</title><path class="cls-1" d="M375.08,463.16H338.43a24.08,24.08,0,0,1,24.08-24.08H437.9a24.08,24.08,0,0,1-24.08,24.08H401.25v96.32h0a26.18,26.18,0,0,1-26.18-26.18Z"/><path class="cls-1" d="M411.72,514.22v-.35c0-26.37,18.79-48.09,45.68-48.09,30.86,0,45,24,45,50.16,0,2.07-.17,4.48-.34,6.89h-64.3c2.59,11.89,10.86,18.1,22.58,18.1a30.14,30.14,0,0,0,10.29-1.64,27.24,27.24,0,0,1,27.11,5.43h0C489.12,555.42,476.71,562,460,562,432.24,562,411.72,542.49,411.72,514.22Zm64.66-8.13c-1.55-11.72-8.45-19.65-19.48-19.65-10.86,0-17.93,7.76-20,19.65Z"/><path class="cls-1" d="M509.09,532.94v-.35c0-20.12,15.31-29.41,37.15-29.41A65.49,65.49,0,0,1,568.77,507v-1.6c0-10.86-6.71-16.89-19.79-16.89a67.1,67.1,0,0,0-7.89.44A22.61,22.61,0,0,1,517,473.47h0c10.15-4.48,20.14-7.41,35.8-7.41,14.28,0,24.61,3.79,31.15,10.34,6.88,6.9,10,17.07,10,29.48v38.48a15.13,15.13,0,0,1-15.13,15.13h0a10,10,0,0,1-10-10h0c-6.38,7.07-15.18,11.72-27.94,11.72C523.41,561.21,509.09,551.21,509.09,532.94Zm60.73-6v-4.62a40.32,40.32,0,0,0-16.59-3.42c-11.12,0-18,4.45-18,12.66v.34c0,7,5.82,11.12,14.2,11.12C561.61,543,569.82,536.37,569.82,527Z"/><path class="cls-2" d="M605.42,481.22a42.14,42.14,0,0,1,42.14-42.14h6.84c28.85,0,46.3,17.13,46.3,41.88v.35c0,28-21.77,42.58-48.89,42.58H631.59v9.42a26.18,26.18,0,0,1-26.18,26.18h0Zm48.16,18.58c13.22,0,20.94-7.88,20.94-18.15v-.34c0-11.82-8.24-18.15-21.45-18.15h0a20.43,20.43,0,0,0-20.43,20.43V499.8Z"/><path class="cls-2" d="M707,498.76h0a26.18,26.18,0,0,1,26.18,26.18v34.55h0A26.18,26.18,0,0,1,707,533.31Z"/><path class="cls-2" d="M739.44,514.22v-.35c0-26.37,18.79-48.09,45.68-48.09,30.86,0,45,24,45,50.16,0,2.07-.17,4.48-.34,6.89h-64.3c2.59,11.89,10.86,18.1,22.58,18.1a30.14,30.14,0,0,0,10.29-1.64,27.24,27.24,0,0,1,27.11,5.43h0c-8.62,10.69-21,17.24-37.75,17.24C760,562,739.44,542.49,739.44,514.22Zm65.1-8.13c-1.55-11.72-8.45-19.65-19.48-19.65-10.86,0-17.93,7.76-20,19.65Z"/><circle class="cls-2" cx="720.07" cy="479.39" r="13.09"/><path class="cls-3" d="M289,519a43.9,43.9,0,0,1-65,17.35l-.09-.07a44.11,44.11,0,0,1-12.51-13.59q-1.05-1.79-1.95-3.69Z"/><path class="cls-4" d="M304,472.39a13,13,0,0,1-10.5,5.77c-.32,0-.63,0-.94,0a12.61,12.61,0,0,1-7.05-2.81,13.08,13.08,0,0,1-2.55-2.76c-.2.19-.4.38-.61.56a14.34,14.34,0,0,1-19.67-.91,15.89,15.89,0,0,1-4.52-10.75,15.25,15.25,0,0,1,.29-3,14.91,14.91,0,0,1,.58-2.1,11.73,11.73,0,0,1-6.91-10.75,12.06,12.06,0,0,1,2-6.34c1.91.15,3.86.4,5.71.73a9.25,9.25,0,0,0,.66,13.79,8.89,8.89,0,0,0,2.41,1.38,13.3,13.3,0,0,0-.56,2.07,13.5,13.5,0,0,0-.23,2.15c0,.11,0,.22,0,.34a13.21,13.21,0,0,0,3.61,9.12A12.67,12.67,0,0,0,281,471.32a11.73,11.73,0,0,0,1-.62,13,13,0,0,0,2.1-1.75,9.19,9.19,0,0,0,3.64,3.82,8.75,8.75,0,0,0,4.32,1.13h.47a9,9,0,0,0,8.23-7A61.93,61.93,0,0,1,304,472.39Z"/><path class="cls-2" d="M310.92,501.06H205.57a43.24,43.24,0,0,1,4.06-18.34H190.19a62.86,62.86,0,0,1,15.66-25.83,61.53,61.53,0,0,1,43.36-17.81q2.54,0,5,.2a11.87,11.87,0,0,0-1.82,6.34,11.73,11.73,0,0,0,6.91,10.75,14.91,14.91,0,0,0-.58,2.1,15.25,15.25,0,0,0-.29,3,15,15,0,0,0,4.23,10.47,14.34,14.34,0,0,0,19.67.91c.21-.18.41-.36.61-.56a13.08,13.08,0,0,0,2.55,2.76,12.61,12.61,0,0,0,7.05,2.81c.31,0,.62,0,.94,0A12.76,12.76,0,0,0,304,472.36a61.46,61.46,0,0,1,4.15,10.08A63.6,63.6,0,0,1,310.92,501.06Z"/><path class="cls-1" d="M292.58,500.78v43.9q-1,1-2.12,2a61.48,61.48,0,0,1-41.24,15.81,62.89,62.89,0,0,1-25.3-5.41V536l.37.27a43.42,43.42,0,0,0,64.23-17.14H223.91V500.78Z"/><path class="cls-5" d="M336.86,519.13a27.52,27.52,0,0,0-25.95-18.34H292.33v61.7h18.59v-6.68a27.53,27.53,0,0,0,25.95-36.69Zm-25.95,18.34a9.17,9.17,0,1,1,9.17-9.17A9.16,9.16,0,0,1,310.92,537.47Z"/><circle class="cls-6" cx="248.76" cy="476.13" r="9.07"/><circle class="cls-6" cx="290.33" cy="489.54" r="6.96"/><circle class="cls-6" cx="240.02" cy="451.96" r="5.41"/><circle class="cls-6" cx="211.32" cy="467.06" r="5.29"/><circle class="cls-6" cx="236.14" cy="491.61" r="4.47"/><circle class="cls-6" cx="267.69" cy="489.02" r="4.47"/><circle class="cls-6" cx="228.71" cy="465.47" r="4.47"/><circle class="cls-6" cx="218.28" cy="484.56" r="6.96"/><path class="cls-5" d="M209.91,519.13q.88,1.88,1.92,3.65a43.59,43.59,0,0,0,12.36,13.43v21a61.84,61.84,0,0,1-33.91-38.08H169.17V500.78h18.34a61.71,61.71,0,0,1,2.77-18.34h19.63a43.24,43.24,0,0,0-4.06,18.34h18.34v18.34Z"/></svg>