<svg id="Layer_1" data-name="Layer 1" xmlns="http://www.w3.org/2000/svg" viewBox="0 0 1000 752"><defs><style>.cls-1{fill:#c93939;}.cls-2{fill:#c77d26;}.cls-3{fill:#e35f5f;}.cls-4{fill:#f6b696;}.cls-5{fill:#991b1b;}.cls-6{fill:#42210b;}</style></defs><title>Red Centered Logo_1</title><path class="cls-1" d="M111.37,524.86H43.29A44.74,44.74,0,0,1,88,480.13h140a44.74,44.74,0,0,1-44.74,44.74H160V703.81h0a48.63,48.63,0,0,1-48.63-48.63Z"/><path class="cls-1" d="M179.45,619.72v-.64c0-49,34.91-89.35,84.86-89.35,57.32,0,83.58,44.51,83.58,93.19,0,3.84-.32,8.33-.64,12.81H227.81c4.8,22.1,20.17,33.63,42,33.63a56,56,0,0,0,19.12-3,50.6,50.6,0,0,1,50.37,10.09h0c-16,19.86-39.07,32-70.13,32C217.56,708.43,179.45,672.24,179.45,619.72Zm120.12-15.11c-2.88-21.78-15.69-36.51-36.19-36.51-20.17,0-33.3,14.41-37.15,36.51Z"/><path class="cls-1" d="M360.34,654.49v-.66c0-37.38,28.44-54.64,69-54.64a121.67,121.67,0,0,1,41.85,7v-3c0-20.18-12.47-31.39-36.77-31.39a124.65,124.65,0,0,0-14.65.82A42,42,0,0,1,375,544h0c18.86-8.33,37.41-13.77,66.5-13.77,26.54,0,45.72,7,57.87,19.22,12.79,12.81,18.54,31.7,18.54,54.76V675.7a28.11,28.11,0,0,1-28.11,28.11h0a18.57,18.57,0,0,1-18.57-18.57h0C459.36,698.37,443,707,419.3,707,386.94,707,360.34,688.44,360.34,654.49Zm112.81-11.1v-8.58a74.9,74.9,0,0,0-30.82-6.36c-20.66,0-33.36,8.26-33.36,23.51v.64c0,13,10.8,20.66,26.37,20.66C457.9,673.26,473.16,660.87,473.16,643.39Z"/><path class="cls-2" d="M539.29,558.42a78.29,78.29,0,0,1,78.29-78.29h12.7c53.6,0,86,31.83,86,77.81v.64c0,52.09-40.44,79.1-90.82,79.1H587.92v17.51a48.63,48.63,0,0,1-48.63,48.63h0Zm89.47,34.53c24.55,0,38.9-14.63,38.9-33.72v-.64c0-22-15.3-33.72-39.86-33.72h0a38,38,0,0,0-37.95,37.95v30.13Z"/><path class="cls-2" d="M728,591h0a48.63,48.63,0,0,1,48.63,48.63v64.19h0A48.63,48.63,0,0,1,728,655.18Z"/><path class="cls-2" d="M788.26,619.72v-.64c0-49,34.91-89.35,84.86-89.35,57.32,0,83.58,44.51,83.58,93.19,0,3.84-.32,8.33-.64,12.81H836.62c4.8,22.1,20.17,33.63,42,33.63a56,56,0,0,0,19.12-3,50.6,50.6,0,0,1,50.37,10.09h0c-16,19.86-39.07,32-70.13,32C826.37,708.43,788.26,672.24,788.26,619.72ZM909.2,604.61c-2.88-21.78-15.69-36.51-36.19-36.51-20.17,0-33.3,14.41-37.15,36.51Z"/><circle class="cls-2" cx="752.28" cy="555.01" r="24.31"/><path class="cls-3" d="M614.72,304.46A143.11,143.11,0,0,1,402.81,361l-.3-.21a143.8,143.8,0,0,1-40.78-44.3q-3.44-5.84-6.35-12Z"/><path class="cls-4" d="M663.69,152.61c-7.6,10.89-20.13,18.8-34.23,18.8-1,0-2,0-3.05-.12a41.11,41.11,0,0,1-23-9.15,42.63,42.63,0,0,1-8.3-9c-.64.63-1.32,1.23-2,1.81A46.75,46.75,0,0,1,529,152c-8.53-8.75-14.72-21.73-14.72-35a49.71,49.71,0,0,1,1-9.72,48.61,48.61,0,0,1,1.9-6.85,38.24,38.24,0,0,1-22.53-35c0-7.61,2.89-14.72,6.64-20.68,6.22.5,12.58,1.3,18.62,2.36A30.15,30.15,0,0,0,522,92a29,29,0,0,0,7.85,4.49,43.34,43.34,0,0,0-1.84,6.74,44,44,0,0,0-.75,7c0,.37,0,.73,0,1.09A43.05,43.05,0,0,0,539,141a41.3,41.3,0,0,0,49.73,8.08,38.25,38.25,0,0,0,3.34-2,42.4,42.4,0,0,0,6.84-5.71,29.95,29.95,0,0,0,11.86,12.44,28.54,28.54,0,0,0,14.08,3.69c.51,0,1,0,1.54,0a29.36,29.36,0,0,0,26.82-22.71A201.88,201.88,0,0,1,663.69,152.61Z"/><path class="cls-2" d="M686.21,246.07H342.77A141,141,0,0,1,356,186.28H292.65a204.93,204.93,0,0,1,51-84.22A200.6,200.6,0,0,1,485.05,44q8.28,0,16.39.66a38.68,38.68,0,0,0-5.94,20.66,38.24,38.24,0,0,0,22.53,35,48.61,48.61,0,0,0-1.9,6.85,49.71,49.71,0,0,0-1,9.72A48.74,48.74,0,0,0,529,151.07a46.75,46.75,0,0,0,64.14,3c.68-.58,1.35-1.19,2-1.81a42.63,42.63,0,0,0,8.3,9,41.11,41.11,0,0,0,23,9.15c1,.08,2,.12,3.05.12a41.61,41.61,0,0,0,34.17-18,200.36,200.36,0,0,1,13.54,32.87A207.32,207.32,0,0,1,686.21,246.07Z"/><path class="cls-1" d="M626.41,245.15V388.26q-3.38,3.35-6.92,6.52a200.43,200.43,0,0,1-134.44,51.53,205,205,0,0,1-82.48-17.64V360l1.21.87A141.53,141.53,0,0,0,613.18,305H402.57v-59.8Z"/><path class="cls-5" d="M770.78,305a89.72,89.72,0,0,0-84.58-59.8H625.6V446.31h60.6V424.54A89.73,89.73,0,0,0,770.78,305Zm-84.58,59.8a29.9,29.9,0,1,1,29.9-29.9A29.87,29.87,0,0,1,686.21,364.75Z"/><circle class="cls-6" cx="483.57" cy="164.79" r="29.57"/><circle class="cls-6" cx="619.11" cy="208.5" r="22.67"/><circle class="cls-6" cx="455.1" cy="86" r="17.65"/><circle class="cls-6" cx="361.52" cy="135.22" r="17.25"/><circle class="cls-6" cx="442.43" cy="215.26" r="14.57"/><circle class="cls-6" cx="545.28" cy="206.82" r="14.57"/><circle class="cls-6" cx="418.2" cy="130.03" r="14.57"/><circle class="cls-6" cx="384.2" cy="192.26" r="22.67"/><path class="cls-5" d="M356.92,305q2.87,6.11,6.27,11.89a142.1,142.1,0,0,0,40.29,43.77v68.46A201.61,201.61,0,0,1,292.93,305H224.1v-59.8h59.8a201.18,201.18,0,0,1,9-59.8h64a141,141,0,0,0-13.23,59.8h59.8V305Z"/></svg>