<svg id="Layer_1" data-name="Layer 1" xmlns="http://www.w3.org/2000/svg" viewBox="0 0 1000 264.78"><defs><style>.cls-1{fill:#c93939;}.cls-2{fill:#c77d26;}.cls-3{fill:#e35f5f;}.cls-4{fill:#f6b696;}.cls-5{fill:#991b1b;}.cls-6{fill:#42210b;}</style></defs><title>Red Horizontal Logo</title><path class="cls-1" d="M321.72,79.43H269.37A34.4,34.4,0,0,1,303.77,45H411.45a34.4,34.4,0,0,1-34.4,34.4H359.11V217h0a37.39,37.39,0,0,1-37.39-37.39Z"/><path class="cls-1" d="M374.06,152.37v-.49c0-37.67,26.84-68.7,65.25-68.7,44.08,0,64.27,34.22,64.27,71.65,0,3-.25,6.4-.49,9.85H411.24c3.69,17,15.51,25.85,32.25,25.85a43.05,43.05,0,0,0,14.7-2.34,38.91,38.91,0,0,1,38.73,7.76h0c-12.31,15.27-30,24.62-53.92,24.62C403.36,220.57,374.06,192.75,374.06,152.37Zm92.36-11.62c-2.22-16.74-12.07-28.07-27.82-28.07-15.51,0-25.61,11.08-28.56,28.07Z"/><path class="cls-1" d="M513.15,179.1v-.51c0-28.74,21.86-42,53.06-42a93.55,93.55,0,0,1,32.18,5.4v-2.29c0-15.51-9.59-24.13-28.27-24.13a95.84,95.84,0,0,0-11.26.63A32.29,32.29,0,0,1,524.4,94.15h0c14.5-6.4,28.76-10.59,51.13-10.59,20.4,0,35.16,5.42,44.5,14.77,9.83,9.85,14.26,24.38,14.26,42.1v55A21.61,21.61,0,0,1,612.67,217h0a14.28,14.28,0,0,1-14.28-14.28h0c-9.12,10.09-21.68,16.74-39.91,16.74C533.6,219.48,513.15,205.2,513.15,179.1Zm86.74-8.54V164a57.59,57.59,0,0,0-23.7-4.89c-15.88,0-25.65,6.35-25.65,18.08v.49c0,10,8.31,15.88,20.28,15.88C588.16,193.53,599.89,184,599.89,170.56Z"/><path class="cls-2" d="M650.74,105.23A60.2,60.2,0,0,1,710.93,45h9.77c41.21,0,66.13,24.48,66.13,59.83v.49c0,40-31.09,60.82-69.83,60.82H688.12v13.46A37.39,37.39,0,0,1,650.74,217h0Zm68.8,26.55c18.88,0,29.91-11.25,29.91-25.93v-.49c0-16.88-11.77-25.93-30.65-25.93h0a29.18,29.18,0,0,0-29.18,29.18v23.17Z"/><path class="cls-2" d="M795.8,130.28h0a37.39,37.39,0,0,1,37.39,37.39V217h0a37.39,37.39,0,0,1-37.39-37.39Z"/><path class="cls-2" d="M842.16,152.37v-.49c0-37.67,26.84-68.7,65.25-68.7,44.08,0,64.27,34.22,64.27,71.65,0,3-.25,6.4-.49,9.85H879.34c3.69,17,15.51,25.85,32.25,25.85a43.05,43.05,0,0,0,14.7-2.34A38.91,38.91,0,0,1,965,195.95h0c-12.31,15.27-30,24.62-53.92,24.62C871.47,220.57,842.16,192.75,842.16,152.37Zm93-11.62c-2.22-16.74-12.07-28.07-27.82-28.07-15.51,0-25.61,11.08-28.56,28.07Z"/><circle class="cls-2" cx="814.5" cy="102.61" r="18.69"/><path class="cls-3" d="M198.75,159.16a62.71,62.71,0,0,1-92.85,24.78l-.13-.09A63,63,0,0,1,87.9,164.43q-1.51-2.56-2.78-5.27Z"/><path class="cls-4" d="M220.21,92.62a18.61,18.61,0,0,1-15,8.24c-.45,0-.89,0-1.34-.05a18,18,0,0,1-10.08-4,18.68,18.68,0,0,1-3.64-3.94c-.28.27-.58.54-.87.79a20.48,20.48,0,0,1-28.1-1.29A22.69,22.69,0,0,1,154.73,77a21.78,21.78,0,0,1,.42-4.26,21.3,21.3,0,0,1,.83-3,16.76,16.76,0,0,1-9.87-15.36A17.23,17.23,0,0,1,149,45.32c2.72.22,5.51.57,8.16,1A13.21,13.21,0,0,0,158.12,66a12.7,12.7,0,0,0,3.44,2,19,19,0,0,0-.81,3,19.28,19.28,0,0,0-.33,3.08c0,.16,0,.32,0,.48a18.86,18.86,0,0,0,5.16,13,18.09,18.09,0,0,0,21.79,3.54,16.76,16.76,0,0,0,1.46-.88,18.58,18.58,0,0,0,3-2.5,13.12,13.12,0,0,0,5.2,5.45,12.51,12.51,0,0,0,6.17,1.62l.67,0a12.86,12.86,0,0,0,11.75-10A88.46,88.46,0,0,1,220.21,92.62Z"/><path class="cls-2" d="M230.07,133.58H79.59a61.76,61.76,0,0,1,5.8-26.2H57.63A89.79,89.79,0,0,1,80,70.47,87.89,87.89,0,0,1,141.93,45q3.63,0,7.18.29a17,17,0,0,0-2.6,9.05,16.76,16.76,0,0,0,9.87,15.36,21.3,21.3,0,0,0-.83,3,21.78,21.78,0,0,0-.42,4.26,21.36,21.36,0,0,0,6,15,20.48,20.48,0,0,0,28.1,1.29c.3-.25.59-.52.87-.79a18.68,18.68,0,0,0,3.64,3.94,18,18,0,0,0,10.08,4c.44,0,.89.05,1.34.05a18.23,18.23,0,0,0,15-7.88,87.79,87.79,0,0,1,5.93,14.4A90.84,90.84,0,0,1,230.07,133.58Z"/><path class="cls-1" d="M203.87,133.17v62.7q-1.48,1.47-3,2.86a87.82,87.82,0,0,1-58.91,22.58,89.84,89.84,0,0,1-36.14-7.73V183.48l.53.38a62,62,0,0,0,91.75-24.48H105.79v-26.2Z"/><path class="cls-5" d="M267.13,159.37a39.31,39.31,0,0,0-37.06-26.2H203.52v88.14h26.55v-9.54a39.32,39.32,0,0,0,37.06-52.4Zm-37.06,26.2a13.1,13.1,0,1,1,13.1-13.1A13.09,13.09,0,0,1,230.07,185.57Z"/><circle class="cls-6" cx="141.28" cy="97.96" r="12.96"/><circle class="cls-6" cx="200.67" cy="117.11" r="9.93"/><circle class="cls-6" cx="128.81" cy="63.44" r="7.73"/><circle class="cls-6" cx="87.81" cy="85" r="7.56"/><circle class="cls-6" cx="123.26" cy="120.07" r="6.38"/><circle class="cls-6" cx="168.32" cy="116.38" r="6.38"/><circle class="cls-6" cx="112.64" cy="82.73" r="6.38"/><circle class="cls-6" cx="97.74" cy="110" r="9.93"/><path class="cls-5" d="M85.79,159.37q1.26,2.68,2.75,5.21a62.26,62.26,0,0,0,17.66,19.18v30a88.34,88.34,0,0,1-48.44-54.39H27.59v-26.2H53.8a88.15,88.15,0,0,1,4-26.2h28a61.76,61.76,0,0,0-5.8,26.2h26.2v26.2Z"/></svg>