<svg xmlns="http://www.w3.org/2000/svg" version="1.1"
     width="38pt" height="38pt"
     viewBox="0 0 172 172"
     preserveAspectRatio="xMidYMid meet">
  <defs>
    <style>
      .cls-1{fill:#2eb6e0;}
      .cls-2{fill:#f6b696;}
      .cls-3{fill:#c77d26;}
      .cls-4{fill:#0a83ae;}
      .cls-5{fill:#126690;}
      .cls-6{fill:#42210b;}
    </style>
  </defs>
  <!-- Scale and shift to center -->
  <g transform="translate(7, 0) scale(0.152)">
    <path class="cls-1" d="M692.19,599.36a239.76,239.76,0,0,1-355,94.74l-.5-.36a240.92,240.92,0,0,1-68.31-74.21q-5.76-9.78-10.64-20.17Z"/>
    <path class="cls-2" d="M774.24,345c-12.73,18.25-33.72,31.49-57.34,31.49-1.73,0-3.42-.06-5.12-.2a68.88,68.88,0,0,1-38.53-15.34,71.41,71.41,0,0,1-13.9-15.07c-1.08,1-2.2,2.07-3.35,3a78.32,78.32,0,0,1-107.45-4.95c-14.29-14.66-24.66-36.4-24.66-58.71a83.28,83.28,0,0,1,1.6-16.29,81.43,81.43,0,0,1,3.18-11.48,64.07,64.07,0,0,1-37.74-58.72c0-12.75,4.83-24.66,11.12-34.65,10.42.83,21.07,2.17,31.2,4a50.5,50.5,0,0,0,3.59,75.3A48.55,48.55,0,0,0,550,250.86a72.61,72.61,0,0,0-3.08,11.3,73.74,73.74,0,0,0-1.25,11.76c0,.62,0,1.22,0,1.83a72.13,72.13,0,0,0,19.74,49.8,69.19,69.19,0,0,0,83.32,13.53,64.09,64.09,0,0,0,5.59-3.38,71,71,0,0,0,11.47-9.57A50.17,50.17,0,0,0,685.62,347a47.82,47.82,0,0,0,23.58,6.18c.86,0,1.73,0,2.57-.06,21.87-1.17,39.95-17,44.93-38.05A338.23,338.23,0,0,1,774.24,345Z"/>
    <path class="cls-3" d="M812,501.54H236.59a236.14,236.14,0,0,1,22.16-100.18l-106.13,0a343.32,343.32,0,0,1,85.51-141.09A336.07,336.07,0,0,1,475,163q13.87,0,27.46,1.11a64.8,64.8,0,0,0-10,34.62,64.07,64.07,0,0,0,37.74,58.72A81.43,81.43,0,0,0,527,268.92a83.28,83.28,0,0,0-1.6,16.29,81.65,81.65,0,0,0,23.12,57.16A78.32,78.32,0,0,0,656,347.33c1.14-1,2.27-2,3.35-3a71.41,71.41,0,0,0,13.9,15.07,68.88,68.88,0,0,0,38.53,15.34c1.69.14,3.39.2,5.12.2a69.7,69.7,0,0,0,57.24-30.15,335.66,335.66,0,0,1,22.69,55.07A347.33,347.33,0,0,1,812,501.54Z"/>
    <path class="cls-4" d="M711.78,500V739.75q-5.66,5.62-11.59,10.93A335.79,335.79,0,0,1,475,837a343.49,343.49,0,0,1-138.19-29.56V692.34l2,1.45a237.12,237.12,0,0,0,350.81-93.61H336.77V500Z"/>
    <path class="cls-5" d="M953.66,600.18A150.32,150.32,0,0,0,812,500H710.43V837H812V800.54a150.33,150.33,0,0,0,141.7-200.36ZM812,700.36A50.09,50.09,0,1,1,862,650.27,50.05,50.05,0,0,1,812,700.36Z"/>
    <circle class="cls-6" cx="472.47" cy="365.36" r="49.55"/>
    <circle class="cls-6" cx="699.54" cy="438.59" r="37.99"/>
    <circle class="cls-6" cx="424.77" cy="233.37" r="29.57"/>
    <circle class="cls-6" cx="268" cy="315.82" r="28.9"/>
    <circle class="cls-6" cx="403.55" cy="449.91" r="24.4"/>
    <circle class="cls-6" cx="575.86" cy="435.78" r="24.4"/>
    <circle class="cls-6" cx="362.96" cy="307.12" r="24.4"/>
    <circle class="cls-6" cx="305.99" cy="411.38" r="37.99"/>
    <path class="cls-5" d="M260.29,600.18q4.81,10.24,10.51,19.93a238.07,238.07,0,0,0,67.51,73.33v114.7a337.77,337.77,0,0,1-185.22-208H37.77V500H138a337,337,0,0,1,15.14-100.18H260.29A236.14,236.14,0,0,0,238.13,500H338.31V600.18Z"/>
  </g>
</svg>
